# xmcd
#
# Track frame offsets: 
#        150
#        20862
#        49255
#        79349
#        105008
#        106648
#        142051
#        143026
#        180348
#        201198
#        253734
#        270017
#        297439
#        321481
#
# Disc length: 4706 seconds
#
# Revision: 0
# Processed by: cddbd v1.5.2PL0 Copyright (c) Steve Scherf et al.
# Submitted via: ExactAudioCopy v0.99pb4
#
DISCID=c612600e
DTITLE=Walter Trout - Unspoiled By Progress
DYEAR=1900
DGENRE=Blues
TTITLE0=They Call Us The Working Class
TTITLE1=Goin' Down
TTITLE2=Life In The Jungle
TTITLE3=Long Tall Sally
TTITLE4=Jimmy As Yoko
TTITLE5=Somebody's Acting Like a Child
TTITLE6=Hey Barney
TTITLE7=Sweet As a Flower
TTITLE8=Two Sides To Every Story
TTITLE9=Finally Gotten Over You
TTITLE10=Goin' Back Home
TTITLE11=Marie's Mood
TTITLE12=She's Out There Somewhere
TTITLE13=So Afraid Of The Darkness
EXTD=
EXTT0=
EXTT1=
EXTT2=
EXTT3=
EXTT4=
EXTT5=
EXTT6=
EXTT7=
EXTT8=
EXTT9=
EXTT10=
EXTT11=
EXTT12=
EXTT13=
PLAYORDER=
